<?xml version="1.0" encoding="utf-8"?>
<!-- Generator: Adobe Illustrator 21.0.0, SVG Export Plug-In . SVG Version: 6.00 Build 0)  -->
<svg version="1.1" id="Layer_1" xmlns="http://www.w3.org/2000/svg" xmlns:xlink="http://www.w3.org/1999/xlink" x="0px" y="0px"
	 viewBox="0 0 743 195" style="enable-background:new 0 0 743 195;" xml:space="preserve">
<style type="text/css">
	.st0{fill:#1B1E28;stroke:#1B1E28;stroke-width:5.1815;stroke-linejoin:round;stroke-miterlimit:10;}
	.st1{fill:#1B1E28;stroke:#1B1E28;stroke-width:2.0726;stroke-miterlimit:10;}
	.st2{fill:#0D9B76;stroke:#0D9B76;stroke-width:3.1089;stroke-miterlimit:10;}
</style>
<g>
	<path class="st0" d="M117.5,64.2V48h16.1v100h-16.1v-16c-7.9,10.8-20.6,17.6-38.4,17.6c-31.4,0-52-23-52-51.6s20.6-51.6,52-51.6
		C96.9,46.4,109.6,53.4,117.5,64.2z M118.4,98c0-20.6-13.3-38-37.2-38s-38,17.4-38,38s14.2,38,38,38S118.4,118.6,118.4,98z"/>
	<path class="st0" d="M213.1,87.4l46.4,60.6h-19.8l-37.6-50.2L182,116.4V148h-16.1V8H182v89.6L233.7,48h22.6L213.1,87.4z"/>
	<path class="st0" d="M294.1,148H278V8h16.1V148z"/>
	<path class="st0" d="M343,11.6v19.6h-17.4V11.6H343z M326.3,48h16.1v100h-16.1V48z"/>
	<path class="st0" d="M464.6,48l-41.9,100h-18.9L361.7,48h17.6l33.9,84L447,48H464.6z"/>
	<path class="st0" d="M500.7,11.6v19.6h-17.4V11.6H500.7z M483.9,48H500v100h-16.1V48z"/>
	<path class="st0" d="M543.9,148V61.2H522V48h21.9V12.2H560V48h24.7v13.2H560V148H543.9z"/>
	<path class="st1" d="M724,55.6l-8.3-3.2L654.3,187c-0.3,0.7-1.1,1.2-2,1.2h-18.6c-1.5,0-2.6-1.5-2-2.8l64-140.8l-9.3-3.6
		c-1.7-0.6-1.8-2.8-0.2-3.6L715,22.5c1.2-0.6,2.7,0,3.1,1.2l8.8,29.5C727.4,54.8,725.7,56.3,724,55.6z"/>
	<path class="st2" d="M641.1,126.8l-34.5-77.2c-0.6-1.3,0.5-2.8,2-2.8h18.8c0.9,0,1.7,0.5,2,1.3l24.3,58c0.2,0.5,0.2,1,0,1.5
		l-8.7,19.2C644.3,128.4,641.8,128.4,641.1,126.8z"/>
</g>
</svg>
