<?xml version="1.0" encoding="utf-8"?>
<!-- Generator: Adobe Illustrator 21.0.0, SVG Export Plug-In . SVG Version: 6.00 Build 0)  -->
<svg version="1.1" id="Layer_1" xmlns="http://www.w3.org/2000/svg" xmlns:xlink="http://www.w3.org/1999/xlink" x="0px" y="0px"
	 viewBox="0 0 743 195" style="enable-background:new 0 0 743 195;" xml:space="preserve">
<style type="text/css">
	.st0{fill:#FFFFFF;}
	.st1{fill:#FFFFFF;stroke:#FFFFFF;stroke-width:2.0726;stroke-miterlimit:10;}
	.st2{fill:#0D9B76;stroke:#0D9B76;stroke-width:3.1089;stroke-miterlimit:10;}
</style>
<g>
	<g>
		<g>
			<g>
				<path class="st0" d="M117.5,64.2V48h16.1v100h-16.1v-16c-7.9,10.8-20.6,17.6-38.4,17.6c-31.4,0-52-23-52-51.6s20.6-51.6,52-51.6
					C96.9,46.4,109.6,53.4,117.5,64.2z M118.4,98c0-20.6-13.3-38-37.2-38s-38,17.4-38,38s14.2,38,38,38S118.4,118.6,118.4,98z"/>
				<path class="st0" d="M79.1,152.2c-31.6,0-54.6-22.8-54.6-54.2c0-31.4,22.9-54.2,54.6-54.2c14.7,0,26.9,4.6,35.9,13.4V48
					c0-1.4,1.2-2.6,2.6-2.6h16.1c1.4,0,2.6,1.2,2.6,2.6v100c0,1.4-1.2,2.6-2.6,2.6h-16.1c-1.4,0-2.6-1.2-2.6-2.6v-9.1
					C106.1,147.6,93.8,152.2,79.1,152.2z M79.1,49c-28.6,0-49.4,20.6-49.4,49s20.8,49,49.4,49c15.8,0,28.4-5.7,36.4-16.5
					c0.7-0.9,1.8-1.3,2.9-0.9c1.1,0.3,1.8,1.3,1.8,2.5v13.4H131V50.6h-10.9v13.6c0,1.1-0.7,2.1-1.8,2.5c-1.1,0.4-2.2,0-2.9-0.9
					C107.4,54.8,94.8,49,79.1,49z M81.2,138.6c-23.5,0-40.6-17.1-40.6-40.6c0-23.5,17.1-40.6,40.6-40.6c23.4,0,39.7,16.7,39.7,40.6
					C121,121.9,104.6,138.6,81.2,138.6z M81.2,62.6c-24.3,0-35.4,18.4-35.4,35.4c0,17.1,11.1,35.4,35.4,35.4
					c17.2,0,34.6-10.9,34.6-35.4C115.8,73.5,98.4,62.6,81.2,62.6z"/>
			</g>
			<g>
				<path class="st0" d="M213.1,87.4l46.4,60.6h-19.8l-37.6-50.2L182,116.4V148h-16.1V8H182v89.6L233.7,48h22.6L213.1,87.4z"/>
				<path class="st0" d="M259.5,150.6h-19.8c-0.8,0-1.6-0.4-2.1-1l-35.9-47.9l-17.2,15.9V148c0,1.4-1.2,2.6-2.6,2.6h-16.1
					c-1.4,0-2.6-1.2-2.6-2.6V8c0-1.4,1.2-2.6,2.6-2.6H182c1.4,0,2.6,1.2,2.6,2.6v83.5l47.4-45.4c0.5-0.5,1.1-0.7,1.8-0.7h22.6
					c1.1,0,2,0.7,2.4,1.7s0.1,2.1-0.7,2.9l-41.4,37.8l44.9,58.7c0.6,0.8,0.7,1.8,0.3,2.7C261.4,150,260.5,150.6,259.5,150.6z
					 M241,145.4h13.2L211,89c-0.8-1.1-0.7-2.6,0.3-3.5l38.2-34.9h-14.8l-51,48.9c-0.7,0.7-1.9,0.9-2.8,0.5c-1-0.4-1.6-1.3-1.6-2.4
					v-87h-10.9v134.8h10.9v-29c0-0.7,0.3-1.4,0.8-1.9l20.2-18.6c0.5-0.5,1.3-0.7,2-0.7c0.7,0.1,1.4,0.4,1.8,1L241,145.4z"/>
			</g>
			<g>
				<path class="st0" d="M294.1,148H278V8h16.1V148z"/>
				<path class="st0" d="M294.1,150.6H278c-1.4,0-2.6-1.2-2.6-2.6V8c0-1.4,1.2-2.6,2.6-2.6h16.1c1.4,0,2.6,1.2,2.6,2.6v140
					C296.7,149.4,295.5,150.6,294.1,150.6z M280.6,145.4h10.9V10.6h-10.9V145.4z"/>
			</g>
			<g>
				<path class="st0" d="M343,11.6v19.6h-17.4V11.6H343z M326.3,48h16.1v100h-16.1V48z"/>
				<path class="st0" d="M342.4,150.6h-16.1c-1.4,0-2.6-1.2-2.6-2.6V48c0-1.4,1.2-2.6,2.6-2.6h16.1c1.4,0,2.6,1.2,2.6,2.6v100
					C345,149.4,343.8,150.6,342.4,150.6z M328.9,145.4h10.9V50.6h-10.9V145.4z M343,33.8h-17.4c-1.4,0-2.6-1.2-2.6-2.6V11.6
					c0-1.4,1.2-2.6,2.6-2.6H343c1.4,0,2.6,1.2,2.6,2.6v19.6C345.6,32.6,344.5,33.8,343,33.8z M328.2,28.6h12.2V14.2h-12.2V28.6z"/>
			</g>
			<g>
				<path class="st0" d="M464.6,48l-41.9,100h-18.9L361.7,48h17.6l33.9,84L447,48H464.6z"/>
				<path class="st0" d="M422.7,150.6h-18.9c-1,0-2-0.6-2.4-1.6L359.3,49c-0.3-0.8-0.3-1.7,0.2-2.4s1.3-1.2,2.2-1.2h17.6
					c1.1,0,2,0.6,2.4,1.6l31.5,78l31.3-78c0.4-1,1.3-1.6,2.4-1.6h17.6c0.9,0,1.7,0.4,2.2,1.2c0.5,0.7,0.6,1.6,0.2,2.4l-41.9,100
					C424.7,149.9,423.8,150.6,422.7,150.6z M405.5,145.4H421l39.7-94.8h-12l-33.1,82.4c-0.4,1-1.3,1.6-2.4,1.6c0,0,0,0,0,0
					c-1.1,0-2-0.6-2.4-1.6l-33.3-82.4h-12L405.5,145.4z"/>
			</g>
			<g>
				<path class="st0" d="M500.7,11.6v19.6h-17.4V11.6H500.7z M483.9,48H500v100h-16.1V48z"/>
				<path class="st0" d="M500,150.6h-16.1c-1.4,0-2.6-1.2-2.6-2.6V48c0-1.4,1.2-2.6,2.6-2.6H500c1.4,0,2.6,1.2,2.6,2.6v100
					C502.6,149.4,501.5,150.6,500,150.6z M486.5,145.4h10.9V50.6h-10.9V145.4z M500.7,33.8h-17.4c-1.4,0-2.6-1.2-2.6-2.6V11.6
					c0-1.4,1.2-2.6,2.6-2.6h17.4c1.4,0,2.6,1.2,2.6,2.6v19.6C503.3,32.6,502.1,33.8,500.7,33.8z M485.9,28.6h12.2V14.2h-12.2V28.6z"
					/>
			</g>
			<g>
				<path class="st0" d="M543.9,148V61.2h-21.9V48h21.9V12.2H560V48h24.7v13.2H560V148H543.9z"/>
				<path class="st0" d="M560,150.6h-16.1c-1.4,0-2.6-1.2-2.6-2.6V63.8h-19.3c-1.4,0-2.6-1.2-2.6-2.6V48c0-1.4,1.2-2.6,2.6-2.6h19.3
					V12.2c0-1.4,1.2-2.6,2.6-2.6H560c1.4,0,2.6,1.2,2.6,2.6v33.2h22.1c1.4,0,2.6,1.2,2.6,2.6v13.2c0,1.4-1.2,2.6-2.6,2.6h-22.1V148
					C562.6,149.4,561.4,150.6,560,150.6z M546.4,145.4h10.9V61.2c0-1.4,1.2-2.6,2.6-2.6h22.1v-8H560c-1.4,0-2.6-1.2-2.6-2.6V14.8
					h-10.9V48c0,1.4-1.2,2.6-2.6,2.6h-19.3v8h19.3c1.4,0,2.6,1.2,2.6,2.6V145.4z"/>
			</g>
		</g>
	</g>
	<path class="st1" d="M724,55.6l-8.3-3.2L654.3,187c-0.3,0.7-1.1,1.2-2,1.2h-18.6c-1.5,0-2.6-1.5-2-2.8l64-140.8l-9.3-3.6
		c-1.7-0.6-1.8-2.8-0.2-3.6L715,22.5c1.2-0.6,2.7,0,3.1,1.2l8.8,29.5C727.4,54.8,725.7,56.3,724,55.6z"/>
	<path class="st2" d="M641.1,126.8l-34.5-77.2c-0.6-1.3,0.5-2.8,2-2.8l18.8,0c0.9,0,1.7,0.5,2,1.3l24.3,58c0.2,0.5,0.2,1,0,1.5
		l-8.7,19.2C644.3,128.4,641.8,128.4,641.1,126.8z"/>
</g>
</svg>
