<svg id="svg" version="1.1" xmlns="http://www.w3.org/2000/svg" xmlns:xlink="http://www.w3.org/1999/xlink" width="400" height="187.05035971223023" viewBox="0, 0, 400,187.05035971223023"><g id="svgg"><path id="path0" d="M322.264 65.285 C 321.338 65.367,320.343 65.529,320.053 65.645 C 319.764 65.761,319.242 65.856,318.895 65.856 C 318.548 65.856,318.217 65.930,318.161 66.021 C 318.105 66.112,317.681 66.244,317.219 66.313 C 316.757 66.382,316.330 66.518,316.270 66.615 C 316.210 66.712,315.955 66.791,315.702 66.791 C 315.449 66.791,315.097 66.872,314.918 66.969 C 314.739 67.067,314.256 67.289,313.845 67.463 C 307.039 70.329,301.482 75.722,299.115 81.759 C 299.014 82.016,298.823 82.479,298.690 82.788 C 298.478 83.283,298.167 84.296,297.657 86.155 C 296.469 90.492,296.522 98.326,297.770 102.594 C 297.916 103.095,298.036 103.658,298.036 103.846 C 298.036 104.034,298.120 104.239,298.223 104.303 C 298.326 104.367,298.410 104.579,298.410 104.776 C 298.410 105.245,299.455 107.603,300.523 109.542 C 302.236 112.652,307.777 118.428,309.048 118.428 C 309.148 118.428,309.258 118.500,309.292 118.588 C 309.421 118.915,313.563 121.035,314.593 121.301 C 314.799 121.354,315.346 121.539,315.809 121.712 C 319.458 123.076,330.559 123.933,331.778 122.945 C 331.896 122.850,332.371 122.735,332.834 122.689 C 333.676 122.607,335.215 122.250,335.921 121.974 C 336.127 121.894,336.759 121.673,337.325 121.485 C 338.232 121.182,340.123 120.284,341.448 119.527 C 341.695 119.386,342.338 118.955,342.877 118.569 C 343.416 118.183,343.926 117.867,344.011 117.867 C 344.285 117.867,348.871 113.092,349.006 112.666 C 349.078 112.440,349.215 112.254,349.311 112.254 C 349.407 112.254,349.486 112.179,349.486 112.086 C 349.486 111.994,349.786 111.471,350.154 110.925 C 350.886 109.836,352.479 106.604,352.479 106.206 C 352.479 106.068,352.533 105.901,352.600 105.835 C 352.780 105.655,353.401 103.793,353.408 103.412 C 353.412 103.230,353.490 102.936,353.582 102.757 C 354.889 100.218,354.872 88.818,353.556 85.500 C 353.495 85.346,353.404 85.009,353.355 84.752 C 353.157 83.722,352.319 81.611,351.349 79.701 C 351.010 79.032,350.641 78.296,350.530 78.065 C 350.418 77.834,350.264 77.645,350.187 77.644 C 350.110 77.643,350.047 77.554,350.047 77.446 C 350.047 76.692,344.107 70.159,343.422 70.159 C 343.382 70.159,342.899 69.856,342.349 69.486 C 340.794 68.439,337.814 67.059,335.921 66.508 C 335.304 66.329,334.605 66.108,334.369 66.019 C 334.133 65.929,333.712 65.855,333.434 65.854 C 333.156 65.853,332.526 65.730,332.034 65.581 C 330.952 65.252,324.761 65.065,322.264 65.285 M13.346 166.970 C 13.346 167.250,13.821 167.533,13.996 167.357 C 14.050 167.303,13.996 167.259,13.876 167.259 C 13.756 167.259,13.658 167.133,13.658 166.978 C 13.658 166.824,13.587 166.698,13.502 166.698 C 13.416 166.698,13.346 166.821,13.346 166.970 M12.535 167.727 C 12.294 167.983,12.148 168.244,12.210 168.306 C 12.373 168.469,12.747 168.200,12.628 168.006 C 12.572 167.917,12.676 167.760,12.857 167.659 C 13.038 167.557,13.139 167.426,13.080 167.367 C 13.021 167.309,12.776 167.470,12.535 167.727 M52.526 167.586 C 94.277 167.639,91.300 167.552,90.084 168.679 C 89.827 168.917,89.616 169.202,89.616 169.311 C 89.616 169.420,89.519 169.698,89.400 169.928 C 89.281 170.158,89.125 170.472,89.053 170.627 C 88.937 170.874,85.258 170.919,58.165 171.002 C 41.249 171.054,108.379 171.117,207.343 171.142 C 327.144 171.173,387.278 171.251,387.278 171.375 C 387.278 171.666,387.554 171.597,388.026 171.188 C 388.263 170.982,388.550 170.813,388.663 170.811 C 388.778 170.809,388.758 170.739,388.618 170.650 C 388.429 170.530,388.462 170.467,388.759 170.390 C 389.059 170.311,389.149 170.139,389.149 169.641 C 389.149 169.062,389.198 169.000,389.616 169.046 C 389.919 169.079,390.084 169.004,390.084 168.833 C 390.084 168.688,390.172 168.569,390.279 168.569 C 390.588 168.569,391.288 167.840,391.131 167.682 C 391.052 167.604,306.278 167.539,202.744 167.539 C 99.210 167.539,31.611 167.560,52.526 167.586 " stroke="none" fill="#3ba6bd" fill-rule="evenodd"></path><path id="path1" d="M195.016 9.074 C 194.946 9.257,194.655 9.355,194.180 9.355 C 193.780 9.355,193.452 9.445,193.452 9.555 C 193.452 9.814,192.976 10.290,192.717 10.290 C 192.607 10.290,192.516 10.416,192.516 10.571 C 192.516 10.725,192.432 10.851,192.329 10.851 C 192.205 10.851,192.142 32.803,192.142 76.333 C 192.142 119.863,192.205 141.815,192.329 141.815 C 192.432 141.815,192.516 142.025,192.516 142.283 C 192.516 142.574,192.622 142.750,192.797 142.750 C 192.951 142.750,193.078 142.834,193.078 142.937 C 193.078 143.040,193.288 143.124,193.545 143.124 C 193.836 143.124,194.013 143.230,194.013 143.405 C 194.013 143.651,195.251 143.686,204.028 143.686 C 212.758 143.686,214.057 143.650,214.151 143.405 C 214.210 143.251,214.424 143.124,214.626 143.124 C 215.105 143.124,215.529 142.691,215.529 142.202 C 215.529 141.983,215.650 141.815,215.809 141.815 C 216.058 141.815,216.090 134.414,216.090 76.333 C 216.090 18.252,216.058 10.851,215.809 10.851 C 215.655 10.851,215.529 10.761,215.529 10.651 C 215.529 10.392,215.053 9.916,214.794 9.916 C 214.683 9.916,214.593 9.790,214.593 9.635 C 214.593 9.432,214.385 9.355,213.845 9.355 C 213.304 9.355,213.096 9.277,213.096 9.074 C 213.096 8.828,211.973 8.793,204.110 8.793 C 196.295 8.793,195.110 8.830,195.016 9.074 M238.236 9.069 C 238.164 9.257,237.879 9.355,237.398 9.355 C 236.998 9.355,236.670 9.445,236.670 9.555 C 236.670 9.814,236.194 10.290,235.935 10.290 C 235.825 10.290,235.734 10.491,235.734 10.738 C 235.734 10.984,235.608 11.234,235.453 11.293 C 234.996 11.469,235.123 141.417,235.581 141.875 C 235.753 142.048,235.985 142.189,236.095 142.189 C 236.205 142.189,236.296 142.279,236.296 142.389 C 236.296 142.648,236.772 143.124,237.031 143.124 C 237.141 143.124,237.231 143.251,237.231 143.405 C 237.231 143.651,238.468 143.686,247.240 143.686 C 256.013 143.686,257.250 143.651,257.250 143.405 C 257.250 143.230,257.426 143.124,257.717 143.124 C 257.975 143.124,258.185 143.040,258.185 142.937 C 258.185 142.834,258.312 142.750,258.466 142.750 C 258.620 142.750,258.746 142.660,258.746 142.550 C 258.746 142.440,258.873 142.223,259.027 142.069 C 259.181 141.914,259.308 141.589,259.308 141.345 C 259.308 141.101,259.392 140.849,259.495 140.786 C 259.754 140.625,259.754 11.787,259.495 11.787 C 259.392 11.787,259.308 11.576,259.308 11.319 C 259.308 11.028,259.202 10.851,259.027 10.851 C 258.873 10.851,258.746 10.725,258.746 10.571 C 258.746 10.416,258.656 10.290,258.546 10.290 C 258.287 10.290,257.811 9.814,257.811 9.555 C 257.811 9.445,257.608 9.355,257.359 9.355 C 257.110 9.355,256.872 9.249,256.829 9.121 C 256.700 8.732,238.385 8.681,238.236 9.069 M27.643 16.648 C 27.360 16.945,27.128 17.278,27.128 17.388 C 27.128 17.497,27.002 17.587,26.848 17.587 C 26.652 17.587,26.567 17.783,26.567 18.230 C 26.567 18.584,26.483 18.926,26.380 18.990 C 26.123 19.149,26.123 34.799,26.380 34.799 C 26.483 34.799,26.567 35.180,26.567 35.647 C 26.567 36.228,26.655 36.528,26.848 36.602 C 27.002 36.661,27.128 36.797,27.128 36.903 C 27.128 37.200,27.735 37.593,28.204 37.599 C 28.451 37.603,28.625 37.721,28.625 37.886 C 28.625 38.134,32.824 38.167,65.295 38.167 C 85.463 38.167,101.964 38.213,101.964 38.269 C 101.964 38.325,101.754 38.567,101.497 38.805 C 101.239 39.043,101.029 39.334,101.029 39.451 C 101.029 39.568,100.939 39.663,100.829 39.663 C 100.498 39.663,100.094 40.171,100.094 40.585 C 100.094 40.805,99.972 40.973,99.813 40.973 C 99.659 40.973,99.532 41.099,99.532 41.254 C 99.532 41.408,99.442 41.534,99.332 41.534 C 99.073 41.534,98.597 42.010,98.597 42.269 C 98.597 42.379,98.471 42.470,98.316 42.470 C 98.162 42.470,98.036 42.560,98.036 42.670 C 98.036 42.929,97.560 43.405,97.301 43.405 C 97.190 43.405,97.100 43.489,97.100 43.592 C 97.100 43.695,96.763 44.116,96.352 44.528 C 95.940 44.939,95.603 45.366,95.603 45.476 C 95.603 45.585,95.309 45.953,94.949 46.293 C 94.588 46.633,94.294 47.006,94.294 47.122 C 94.294 47.239,94.204 47.334,94.093 47.334 C 93.834 47.334,93.358 47.810,93.358 48.069 C 93.358 48.179,93.268 48.269,93.158 48.269 C 92.899 48.269,92.423 48.745,92.423 49.004 C 92.423 49.115,92.297 49.205,92.142 49.205 C 91.968 49.205,91.862 49.382,91.862 49.673 C 91.862 49.964,91.756 50.140,91.581 50.140 C 91.427 50.140,91.300 50.231,91.300 50.341 C 91.300 50.600,90.824 51.076,90.565 51.076 C 90.455 51.076,90.365 51.166,90.365 51.276 C 90.365 51.535,89.889 52.011,89.630 52.011 C 89.520 52.011,89.429 52.101,89.429 52.212 C 89.429 52.471,88.953 52.947,88.694 52.947 C 88.584 52.947,88.494 53.042,88.494 53.159 C 88.494 53.276,88.283 53.567,88.026 53.805 C 87.769 54.043,87.558 54.411,87.558 54.622 C 87.558 54.832,87.468 55.005,87.358 55.005 C 87.099 55.005,86.623 55.481,86.623 55.740 C 86.623 55.850,86.533 55.940,86.423 55.940 C 86.164 55.940,85.688 56.416,85.688 56.675 C 85.688 56.785,85.597 56.876,85.487 56.876 C 85.228 56.876,84.752 57.352,84.752 57.611 C 84.752 57.721,84.626 57.811,84.471 57.811 C 84.317 57.811,84.191 57.923,84.191 58.060 C 84.191 58.197,83.980 58.422,83.723 58.559 C 83.430 58.717,83.255 58.972,83.255 59.246 C 83.255 59.509,83.144 59.682,82.975 59.682 C 82.820 59.682,82.694 59.772,82.694 59.882 C 82.694 60.141,82.218 60.617,81.959 60.617 C 81.849 60.617,81.759 60.744,81.759 60.898 C 81.759 61.052,81.674 61.179,81.572 61.179 C 81.469 61.179,81.384 61.305,81.384 61.459 C 81.384 61.614,81.296 61.740,81.189 61.740 C 80.873 61.740,79.326 63.354,79.326 63.684 C 79.326 63.849,79.242 63.985,79.139 63.985 C 79.036 63.985,78.952 64.111,78.952 64.266 C 78.952 64.420,78.862 64.546,78.752 64.546 C 78.642 64.546,78.431 64.667,78.284 64.814 C 78.137 64.961,78.017 65.171,78.017 65.281 C 78.017 65.392,77.891 65.482,77.736 65.482 C 77.582 65.482,77.456 65.594,77.456 65.731 C 77.456 65.868,77.245 66.092,76.988 66.230 C 76.731 66.368,76.520 66.593,76.520 66.729 C 76.520 66.866,76.408 66.978,76.271 66.978 C 76.134 66.978,75.909 67.189,75.772 67.446 C 75.634 67.703,75.409 67.914,75.272 67.914 C 75.132 67.914,75.023 68.117,75.023 68.382 C 75.023 68.639,74.939 68.849,74.836 68.849 C 74.733 68.849,74.649 68.976,74.649 69.130 C 74.649 69.284,74.559 69.411,74.449 69.411 C 74.190 69.411,73.714 69.887,73.714 70.146 C 73.714 70.256,73.624 70.346,73.514 70.346 C 73.405 70.346,72.858 70.804,72.298 71.363 C 71.739 71.922,71.282 72.469,71.282 72.579 C 71.282 72.689,71.155 72.778,71.001 72.778 C 70.842 72.778,70.720 72.946,70.720 73.166 C 70.720 73.580,70.315 74.088,69.985 74.088 C 69.875 74.088,69.785 74.214,69.785 74.369 C 69.785 74.523,69.695 74.649,69.584 74.649 C 69.325 74.649,68.849 75.125,68.849 75.384 C 68.849 75.494,68.759 75.585,68.649 75.585 C 68.433 75.585,67.914 76.044,67.914 76.235 C 67.914 76.299,67.703 76.546,67.446 76.784 C 67.189 77.023,66.978 77.398,66.978 77.617 C 66.978 77.837,66.896 78.017,66.796 78.017 C 66.546 78.017,64.546 80.002,64.546 80.250 C 64.546 80.359,64.456 80.449,64.346 80.449 C 64.087 80.449,63.611 80.925,63.611 81.184 C 63.611 81.294,63.521 81.384,63.410 81.384 C 63.080 81.384,62.675 81.892,62.675 82.307 C 62.675 82.526,62.554 82.694,62.395 82.694 C 62.240 82.694,62.114 82.820,62.114 82.975 C 62.114 83.129,62.024 83.255,61.914 83.255 C 61.655 83.255,61.179 83.731,61.179 83.990 C 61.179 84.101,61.052 84.191,60.898 84.191 C 60.744 84.191,60.617 84.281,60.617 84.391 C 60.617 84.650,60.141 85.126,59.882 85.126 C 59.772 85.126,59.682 85.216,59.682 85.326 C 59.682 85.436,59.399 85.794,59.053 86.121 C 58.707 86.449,58.365 86.906,58.292 87.138 C 58.220 87.369,58.081 87.558,57.986 87.558 C 57.890 87.558,57.811 87.685,57.811 87.839 C 57.811 87.993,57.721 88.120,57.611 88.120 C 57.352 88.120,56.876 88.596,56.876 88.855 C 56.876 88.965,56.785 89.055,56.675 89.055 C 56.416 89.055,55.940 89.531,55.940 89.790 C 55.940 89.900,55.828 89.991,55.691 89.991 C 55.554 89.991,55.329 90.201,55.192 90.458 C 55.054 90.716,54.829 90.926,54.692 90.926 C 54.552 90.926,54.443 91.129,54.443 91.394 C 54.443 91.685,54.337 91.862,54.163 91.862 C 54.008 91.862,53.882 91.952,53.882 92.062 C 53.882 92.321,53.406 92.797,53.147 92.797 C 53.037 92.797,52.947 92.887,52.947 92.997 C 52.947 93.256,52.471 93.732,52.212 93.732 C 52.101 93.732,52.011 93.822,52.011 93.932 C 52.011 94.042,51.717 94.410,51.356 94.749 C 50.996 95.089,50.702 95.462,50.702 95.579 C 50.702 95.695,50.575 95.790,50.421 95.790 C 50.246 95.790,50.140 95.967,50.140 96.258 C 50.140 96.515,50.050 96.726,49.940 96.726 C 49.681 96.726,49.205 97.202,49.205 97.461 C 49.205 97.571,49.115 97.661,49.004 97.661 C 48.745 97.661,48.269 98.137,48.269 98.396 C 48.269 98.507,48.143 98.597,47.989 98.597 C 47.834 98.597,47.708 98.687,47.708 98.797 C 47.708 99.056,47.232 99.532,46.973 99.532 C 46.863 99.532,46.773 99.644,46.773 99.781 C 46.773 99.918,46.562 100.143,46.305 100.281 C 46.011 100.438,45.837 100.693,45.837 100.967 C 45.837 101.230,45.726 101.403,45.557 101.403 C 45.402 101.403,45.276 101.493,45.276 101.603 C 45.276 101.713,44.981 102.080,44.621 102.420 C 44.261 102.760,43.966 103.133,43.966 103.249 C 43.966 103.366,43.877 103.461,43.767 103.461 C 43.402 103.461,41.534 105.486,41.534 105.881 C 41.534 106.100,41.412 106.268,41.254 106.268 C 41.099 106.268,40.973 106.358,40.973 106.468 C 40.973 106.727,40.497 107.203,40.238 107.203 C 40.128 107.203,40.037 107.293,40.037 107.403 C 40.037 107.662,39.561 108.138,39.302 108.138 C 39.192 108.138,39.102 108.265,39.102 108.419 C 39.102 108.573,38.976 108.700,38.821 108.700 C 38.667 108.700,38.541 108.775,38.541 108.867 C 38.541 108.959,38.332 109.233,38.076 109.475 C 37.821 109.718,37.610 110.063,37.608 110.243 C 37.607 110.423,37.521 110.571,37.418 110.571 C 37.315 110.571,37.231 110.697,37.231 110.851 C 37.231 111.006,37.141 111.132,37.031 111.132 C 36.772 111.132,36.296 111.608,36.296 111.867 C 36.296 111.977,36.206 112.067,36.096 112.067 C 35.837 112.067,33.863 114.041,33.863 114.300 C 33.863 114.410,33.737 114.500,33.583 114.500 C 33.424 114.500,33.302 114.667,33.302 114.887 C 33.302 115.301,32.897 115.809,32.567 115.809 C 32.457 115.809,32.367 115.921,32.367 116.058 C 32.367 116.195,32.156 116.420,31.899 116.558 C 31.642 116.695,31.431 116.920,31.431 117.057 C 31.431 117.194,31.305 117.306,31.151 117.306 C 30.996 117.306,30.870 117.395,30.870 117.504 C 30.870 117.612,30.449 118.105,29.935 118.598 C 29.420 119.091,28.999 119.634,28.999 119.804 C 28.999 119.973,28.915 120.112,28.812 120.112 C 28.709 120.112,28.625 120.239,28.625 120.393 C 28.625 120.547,28.534 120.674,28.423 120.674 C 28.162 120.674,27.128 121.707,27.128 121.969 C 27.128 122.080,27.038 122.170,26.928 122.170 C 26.669 122.170,26.193 122.646,26.193 122.905 C 26.193 123.016,26.066 123.106,25.912 123.106 C 25.737 123.106,25.631 123.282,25.631 123.573 C 25.631 123.831,25.547 124.041,25.444 124.041 C 25.322 124.041,25.257 127.035,25.257 132.647 C 25.257 138.260,25.322 141.254,25.444 141.254 C 25.547 141.254,25.631 141.464,25.631 141.721 C 25.631 142.012,25.737 142.189,25.912 142.189 C 26.066 142.189,26.193 142.279,26.193 142.389 C 26.193 142.648,26.669 143.124,26.928 143.124 C 27.038 143.124,27.128 143.251,27.128 143.405 C 27.128 143.654,33.188 143.686,80.543 143.686 C 127.897 143.686,133.957 143.654,133.957 143.405 C 133.957 143.241,134.131 143.122,134.378 143.118 C 134.959 143.110,135.454 142.694,135.454 142.215 C 135.454 141.984,135.572 141.815,135.734 141.815 C 135.980 141.815,136.015 140.651,136.015 132.460 C 136.015 124.270,135.980 123.106,135.734 123.106 C 135.580 123.106,135.454 123.016,135.454 122.905 C 135.454 122.795,135.333 122.585,135.186 122.438 C 135.039 122.291,134.829 122.170,134.719 122.170 C 134.608 122.170,134.518 122.044,134.518 121.890 C 134.518 121.641,130.215 121.609,96.913 121.609 C 70.296 121.609,59.308 121.550,59.308 121.409 C 59.308 121.150,59.784 120.674,60.043 120.674 C 60.153 120.674,60.243 120.583,60.243 120.473 C 60.243 120.214,60.719 119.738,60.978 119.738 C 61.088 119.738,61.179 119.642,61.179 119.526 C 61.179 119.409,61.389 119.118,61.646 118.880 C 61.904 118.641,62.114 118.274,62.114 118.063 C 62.114 117.852,62.204 117.680,62.315 117.680 C 62.574 117.680,63.050 117.204,63.050 116.945 C 63.050 116.835,63.140 116.745,63.250 116.745 C 63.509 116.745,63.985 116.269,63.985 116.010 C 63.985 115.899,64.075 115.809,64.185 115.809 C 64.445 115.809,64.920 115.333,64.920 115.074 C 64.920 114.964,65.047 114.874,65.201 114.874 C 65.355 114.874,65.482 114.784,65.482 114.673 C 65.482 114.414,65.958 113.938,66.217 113.938 C 66.327 113.938,66.417 113.728,66.417 113.471 C 66.417 113.180,66.523 113.003,66.698 113.003 C 66.852 113.003,66.978 112.913,66.978 112.802 C 66.978 112.543,67.454 112.067,67.713 112.067 C 67.824 112.067,67.914 111.978,67.914 111.868 C 67.914 111.758,68.209 111.390,68.569 111.050 C 68.929 110.711,69.224 110.338,69.224 110.221 C 69.224 110.105,69.314 110.009,69.424 110.009 C 69.683 110.009,70.159 109.533,70.159 109.274 C 70.159 109.164,70.285 109.074,70.440 109.074 C 70.614 109.074,70.720 108.897,70.720 108.606 C 70.720 108.349,70.811 108.138,70.921 108.138 C 71.180 108.138,71.656 107.662,71.656 107.403 C 71.656 107.293,71.782 107.203,71.936 107.203 C 72.091 107.203,72.217 107.113,72.217 107.003 C 72.217 106.744,72.693 106.268,72.952 106.268 C 73.062 106.268,73.152 106.175,73.152 106.062 C 73.152 105.949,73.573 105.470,74.088 104.998 C 74.602 104.525,75.023 104.024,75.023 103.885 C 75.023 103.745,75.234 103.435,75.491 103.197 C 75.748 102.959,75.959 102.668,75.959 102.551 C 75.959 102.434,76.049 102.339,76.159 102.339 C 76.418 102.339,76.894 101.863,76.894 101.604 C 76.894 101.493,76.986 101.403,77.098 101.403 C 77.405 101.403,78.952 99.747,78.952 99.418 C 78.952 99.088,79.392 98.597,79.687 98.597 C 79.798 98.597,79.888 98.507,79.888 98.396 C 79.888 98.137,80.364 97.661,80.623 97.661 C 80.733 97.661,80.823 97.571,80.823 97.461 C 80.823 97.202,81.299 96.726,81.558 96.726 C 81.668 96.726,81.759 96.600,81.759 96.445 C 81.759 96.291,81.885 96.165,82.039 96.165 C 82.194 96.165,82.320 96.058,82.320 95.928 C 82.320 95.798,82.530 95.534,82.788 95.341 C 83.045 95.148,83.255 94.833,83.255 94.642 C 83.255 94.450,83.340 94.294,83.442 94.294 C 83.545 94.294,83.630 94.167,83.630 94.013 C 83.630 93.859,83.720 93.732,83.830 93.732 C 83.940 93.732,84.151 93.612,84.298 93.465 C 84.445 93.318,84.565 93.108,84.565 92.997 C 84.565 92.887,84.656 92.797,84.766 92.797 C 84.877 92.797,85.214 92.551,85.515 92.250 C 85.816 91.949,86.062 91.613,86.062 91.502 C 86.062 91.391,86.152 91.300,86.262 91.300 C 86.372 91.300,86.583 91.180,86.730 91.033 C 86.877 90.886,86.997 90.676,86.997 90.565 C 86.997 90.455,87.123 90.365,87.278 90.365 C 87.437 90.365,87.558 90.197,87.558 89.977 C 87.558 89.563,87.963 89.055,88.293 89.055 C 88.404 89.055,88.494 88.974,88.494 88.875 C 88.494 88.630,89.555 87.558,89.797 87.558 C 89.904 87.558,89.991 87.470,89.991 87.361 C 89.991 87.252,90.412 86.760,90.926 86.266 C 91.441 85.773,91.862 85.230,91.862 85.061 C 91.862 84.891,91.946 84.752,92.049 84.752 C 92.152 84.752,92.236 84.626,92.236 84.471 C 92.236 84.317,92.362 84.191,92.516 84.191 C 92.671 84.191,92.797 84.065,92.797 83.910 C 92.797 83.756,92.887 83.630,92.997 83.630 C 93.108 83.630,93.318 83.509,93.465 83.362 C 93.612 83.215,93.732 83.005,93.732 82.895 C 93.732 82.784,93.823 82.694,93.933 82.694 C 94.043 82.694,94.254 82.574,94.401 82.427 C 94.548 82.280,94.668 82.069,94.668 81.959 C 94.668 81.849,94.764 81.759,94.881 81.759 C 95.196 81.759,95.591 81.165,95.597 80.683 C 95.601 80.436,95.719 80.262,95.884 80.262 C 96.038 80.262,96.165 80.178,96.165 80.075 C 96.165 79.972,96.291 79.888,96.445 79.888 C 96.600 79.888,96.726 79.798,96.726 79.687 C 96.726 79.428,97.202 78.952,97.461 78.952 C 97.571 78.952,97.661 78.862,97.661 78.753 C 97.661 78.643,97.956 78.275,98.316 77.935 C 98.676 77.596,98.971 77.223,98.971 77.106 C 98.971 76.990,99.061 76.894,99.171 76.894 C 99.502 76.894,99.906 76.386,99.906 75.972 C 99.906 75.752,100.028 75.585,100.187 75.585 C 100.341 75.585,100.468 75.458,100.468 75.304 C 100.468 75.150,100.558 75.023,100.668 75.023 C 100.927 75.023,101.403 74.547,101.403 74.288 C 101.403 74.178,101.493 74.088,101.604 74.088 C 101.863 74.088,102.339 73.612,102.339 73.353 C 102.339 73.243,102.465 73.152,102.619 73.152 C 102.774 73.152,102.900 73.062,102.900 72.952 C 102.900 72.693,103.376 72.217,103.635 72.217 C 103.745 72.217,103.835 72.091,103.835 71.936 C 103.835 71.782,103.914 71.656,104.010 71.656 C 104.106 71.656,104.243 71.470,104.315 71.244 C 104.468 70.762,104.846 70.346,105.132 70.346 C 105.242 70.346,105.332 70.220,105.332 70.065 C 105.332 69.911,105.416 69.785,105.519 69.785 C 105.622 69.785,105.706 69.659,105.706 69.504 C 105.706 69.350,105.796 69.224,105.907 69.224 C 106.166 69.224,106.642 68.748,106.642 68.489 C 106.642 68.378,106.732 68.288,106.842 68.288 C 107.101 68.288,107.577 67.812,107.577 67.553 C 107.577 67.443,107.673 67.353,107.789 67.353 C 108.067 67.353,108.700 66.618,108.700 66.295 C 108.700 66.156,108.784 66.043,108.887 66.043 C 108.990 66.043,109.074 65.917,109.074 65.762 C 109.074 65.608,109.200 65.482,109.355 65.482 C 109.509 65.482,109.635 65.392,109.635 65.281 C 109.635 65.022,110.111 64.546,110.370 64.546 C 110.480 64.546,110.571 64.456,110.571 64.346 C 110.571 64.087,111.047 63.611,111.306 63.611 C 111.416 63.611,111.506 63.505,111.506 63.375 C 111.506 63.245,111.717 62.980,111.974 62.787 C 112.241 62.586,112.442 62.247,112.442 61.994 C 112.442 61.752,112.532 61.553,112.642 61.553 C 112.901 61.553,113.377 61.077,113.377 60.818 C 113.377 60.708,113.467 60.617,113.577 60.617 C 113.836 60.617,114.312 60.141,114.312 59.882 C 114.312 59.772,114.399 59.682,114.506 59.682 C 114.730 59.682,115.809 58.619,115.809 58.397 C 115.809 58.316,116.020 58.136,116.277 57.998 C 116.570 57.841,116.745 57.585,116.745 57.312 C 116.745 57.049,116.856 56.876,117.025 56.876 C 117.180 56.876,117.306 56.785,117.306 56.675 C 117.306 56.416,117.782 55.940,118.041 55.940 C 118.151 55.940,118.241 55.850,118.241 55.740 C 118.241 55.481,118.717 55.005,118.976 55.005 C 119.087 55.005,119.177 54.920,119.177 54.817 C 119.177 54.713,119.598 54.216,120.112 53.713 C 120.647 53.189,121.048 52.628,121.048 52.404 C 121.048 52.188,121.138 52.011,121.248 52.011 C 121.507 52.011,121.983 51.535,121.983 51.276 C 121.983 51.166,122.109 51.076,122.264 51.076 C 122.418 51.076,122.544 50.949,122.544 50.795 C 122.544 50.641,122.635 50.514,122.745 50.514 C 123.004 50.514,123.480 50.039,123.480 49.780 C 123.480 49.669,123.570 49.579,123.680 49.579 C 123.939 49.579,124.415 49.103,124.415 48.844 C 124.415 48.734,124.511 48.644,124.629 48.644 C 124.916 48.644,125.337 48.066,125.345 47.661 C 125.348 47.481,125.477 47.334,125.631 47.334 C 125.786 47.334,125.912 47.208,125.912 47.053 C 125.912 46.899,125.996 46.773,126.099 46.773 C 126.202 46.773,126.286 46.646,126.286 46.492 C 126.286 46.338,126.413 46.211,126.567 46.211 C 126.721 46.211,126.848 46.127,126.848 46.024 C 126.848 45.921,126.974 45.837,127.128 45.837 C 127.283 45.837,127.409 45.752,127.409 45.648 C 127.409 45.543,127.830 45.039,128.344 44.528 C 128.859 44.016,129.280 43.464,129.280 43.301 C 129.280 42.963,129.716 42.470,130.015 42.470 C 130.125 42.470,130.215 42.343,130.215 42.189 C 130.215 42.035,130.305 41.908,130.416 41.908 C 130.675 41.908,131.151 41.432,131.151 41.173 C 131.151 41.063,131.241 40.973,131.351 40.973 C 131.610 40.973,132.086 40.497,132.086 40.238 C 132.086 40.128,132.212 40.037,132.367 40.037 C 132.521 40.037,132.647 39.947,132.647 39.837 C 132.647 39.578,133.123 39.102,133.382 39.102 C 133.493 39.102,133.583 38.928,133.583 38.715 C 133.583 38.487,134.081 37.838,134.799 37.131 L 136.015 35.932 136.015 26.759 C 136.015 18.730,135.980 17.587,135.734 17.587 C 135.580 17.587,135.454 17.496,135.454 17.385 C 135.454 17.274,135.208 16.937,134.907 16.637 L 134.360 16.090 81.259 16.099 L 28.157 16.108 27.643 16.648 M149.719 16.370 C 149.591 16.516,149.486 16.723,149.486 16.830 C 149.486 16.938,149.359 17.025,149.205 17.025 C 149.051 17.025,148.924 17.152,148.924 17.306 C 148.924 17.460,148.798 17.587,148.644 17.587 C 148.469 17.587,148.363 17.763,148.363 18.054 C 148.363 18.312,148.279 18.522,148.176 18.522 C 148.054 18.522,147.989 21.671,147.989 27.596 C 147.989 32.785,148.060 36.670,148.156 36.670 C 148.247 36.670,148.375 36.880,148.440 37.138 C 148.504 37.395,148.640 37.605,148.741 37.605 C 148.842 37.605,148.924 37.732,148.924 37.886 C 148.924 38.040,149.051 38.167,149.205 38.167 C 149.359 38.167,149.486 38.251,149.486 38.354 C 149.486 38.457,149.696 38.541,149.953 38.541 C 150.244 38.541,150.421 38.647,150.421 38.821 C 150.421 39.067,151.689 39.102,160.711 39.102 C 169.733 39.102,171.001 39.067,171.001 38.821 C 171.001 38.647,171.178 38.541,171.469 38.541 C 171.726 38.541,171.936 38.457,171.936 38.354 C 171.936 38.251,172.063 38.167,172.217 38.167 C 172.371 38.167,172.498 38.040,172.498 37.886 C 172.498 37.732,172.582 37.605,172.685 37.605 C 172.788 37.605,172.872 37.395,172.872 37.138 C 172.872 36.846,172.978 36.670,173.152 36.670 C 173.398 36.670,173.433 35.515,173.433 27.403 C 173.433 19.338,173.397 18.122,173.152 18.028 C 172.998 17.969,172.872 17.732,172.872 17.502 C 172.872 17.207,172.665 16.979,172.170 16.727 C 171.784 16.531,171.441 16.307,171.406 16.230 C 171.278 15.941,149.976 16.078,149.719 16.370 M317.306 43.686 C 317.306 43.914,316.994 43.966,315.622 43.966 C 314.624 43.966,313.938 44.043,313.938 44.153 C 313.938 44.262,313.346 44.341,312.535 44.341 C 311.413 44.341,311.132 44.397,311.132 44.621 C 311.132 44.837,310.893 44.902,310.103 44.902 C 309.537 44.902,309.074 44.986,309.074 45.089 C 309.074 45.192,308.779 45.276,308.419 45.276 C 307.962 45.276,307.764 45.361,307.764 45.557 C 307.764 45.759,307.556 45.837,307.016 45.837 C 306.604 45.837,306.268 45.921,306.268 46.024 C 306.268 46.127,305.970 46.211,305.607 46.211 C 305.192 46.211,304.906 46.316,304.838 46.492 C 304.772 46.666,304.487 46.773,304.090 46.773 C 303.693 46.773,303.408 46.879,303.342 47.053 C 303.283 47.208,303.033 47.334,302.786 47.334 C 302.540 47.334,302.339 47.418,302.339 47.521 C 302.339 47.624,302.044 47.708,301.684 47.708 C 301.226 47.708,301.029 47.793,301.029 47.989 C 301.029 48.163,300.852 48.269,300.561 48.269 C 300.304 48.269,300.094 48.354,300.094 48.457 C 300.094 48.559,299.880 48.644,299.620 48.644 C 299.359 48.644,299.098 48.770,299.039 48.924 C 298.979 49.079,298.729 49.205,298.483 49.205 C 298.237 49.205,298.036 49.289,298.036 49.392 C 298.036 49.495,297.922 49.579,297.784 49.579 C 297.461 49.579,296.726 50.212,296.726 50.490 C 296.726 50.606,296.473 50.702,296.165 50.702 C 295.856 50.702,295.603 50.786,295.603 50.889 C 295.603 50.992,295.447 51.076,295.255 51.076 C 295.064 51.076,294.749 51.286,294.556 51.543 C 294.363 51.801,294.015 52.011,293.782 52.011 C 293.530 52.011,293.358 52.125,293.358 52.292 C 293.358 52.446,293.232 52.572,293.078 52.572 C 292.923 52.572,292.797 52.657,292.797 52.760 C 292.797 52.862,292.626 52.947,292.417 52.947 C 292.208 52.947,291.988 53.073,291.929 53.227 C 291.870 53.382,291.718 53.508,291.593 53.508 C 291.467 53.508,291.251 53.718,291.113 53.976 C 290.976 54.233,290.751 54.443,290.614 54.443 C 290.477 54.443,290.365 54.570,290.365 54.724 C 290.365 54.883,290.197 55.005,289.977 55.005 C 289.563 55.005,289.055 55.410,289.055 55.740 C 289.055 55.850,288.966 55.940,288.856 55.940 C 288.596 55.940,286.623 57.913,286.623 58.173 C 286.623 58.283,286.533 58.372,286.423 58.372 C 286.164 58.372,285.688 58.848,285.688 59.107 C 285.688 59.218,285.601 59.308,285.494 59.308 C 285.160 59.308,284.191 60.426,284.191 60.811 C 284.191 61.013,284.065 61.179,283.910 61.179 C 283.756 61.179,283.630 61.269,283.630 61.379 C 283.630 61.638,283.154 62.114,282.895 62.114 C 282.784 62.114,282.694 62.240,282.694 62.395 C 282.694 62.549,282.610 62.675,282.507 62.675 C 282.404 62.675,282.320 62.886,282.320 63.143 C 282.320 63.400,282.230 63.611,282.119 63.611 C 281.789 63.611,281.384 64.119,281.384 64.533 C 281.384 64.753,281.263 64.920,281.104 64.920 C 280.949 64.920,280.823 65.038,280.823 65.181 C 280.823 65.324,280.697 65.490,280.543 65.549 C 280.388 65.609,280.262 65.828,280.262 66.037 C 280.262 66.246,280.178 66.417,280.075 66.417 C 279.972 66.417,279.888 66.534,279.888 66.678 C 279.888 66.821,279.761 66.987,279.607 67.046 C 279.453 67.105,279.326 67.325,279.326 67.534 C 279.326 67.743,279.242 67.914,279.139 67.914 C 279.036 67.914,278.952 68.124,278.952 68.382 C 278.952 68.673,278.846 68.849,278.672 68.849 C 278.497 68.849,278.391 69.026,278.391 69.317 C 278.391 69.574,278.307 69.785,278.204 69.785 C 278.101 69.785,278.017 69.995,278.017 70.253 C 278.017 70.544,277.911 70.720,277.736 70.720 C 277.565 70.720,277.456 70.895,277.456 71.168 C 277.456 71.414,277.329 71.664,277.175 71.723 C 277.021 71.783,276.894 72.044,276.894 72.305 C 276.894 72.565,276.810 72.778,276.707 72.778 C 276.604 72.778,276.520 73.073,276.520 73.433 C 276.520 73.890,276.435 74.088,276.239 74.088 C 276.065 74.088,275.959 74.265,275.959 74.556 C 275.959 74.813,275.875 75.023,275.772 75.023 C 275.669 75.023,275.585 75.360,275.585 75.772 C 275.585 76.312,275.507 76.520,275.304 76.520 C 275.101 76.520,275.023 76.728,275.023 77.268 C 275.023 77.680,274.939 78.017,274.836 78.017 C 274.733 78.017,274.649 78.438,274.649 78.952 C 274.649 79.659,274.581 79.888,274.369 79.888 C 274.157 79.888,274.088 80.116,274.088 80.823 C 274.088 81.338,274.004 81.759,273.901 81.759 C 273.795 81.759,273.714 82.289,273.714 82.975 C 273.714 83.931,273.654 84.191,273.433 84.191 C 273.205 84.191,273.152 84.500,273.152 85.855 C 273.152 87.161,273.092 87.542,272.872 87.626 C 272.630 87.719,272.591 88.623,272.591 94.181 C 272.591 99.662,272.633 100.670,272.872 100.909 C 273.078 101.115,273.152 101.617,273.152 102.793 C 273.152 104.094,273.205 104.397,273.433 104.397 C 273.651 104.397,273.714 104.646,273.714 105.519 C 273.714 106.143,273.797 106.642,273.901 106.642 C 274.004 106.642,274.088 107.105,274.088 107.671 C 274.088 108.461,274.153 108.700,274.369 108.700 C 274.581 108.700,274.649 108.928,274.649 109.635 C 274.649 110.150,274.733 110.571,274.836 110.571 C 274.939 110.571,275.023 110.868,275.023 111.231 C 275.023 111.646,275.128 111.932,275.304 112.000 C 275.477 112.066,275.585 112.351,275.585 112.742 C 275.585 113.091,275.669 113.377,275.772 113.377 C 275.875 113.377,275.959 113.590,275.959 113.851 C 275.959 114.111,276.085 114.373,276.239 114.432 C 276.413 114.498,276.520 114.783,276.520 115.174 C 276.520 115.524,276.604 115.809,276.707 115.809 C 276.810 115.809,276.894 115.980,276.894 116.189 C 276.894 116.398,277.021 116.618,277.175 116.677 C 277.329 116.736,277.456 116.986,277.456 117.232 C 277.456 117.506,277.565 117.680,277.736 117.680 C 277.923 117.680,278.017 117.867,278.017 118.241 C 278.017 118.550,278.101 118.803,278.204 118.803 C 278.307 118.803,278.391 119.013,278.391 119.270 C 278.391 119.561,278.497 119.738,278.672 119.738 C 278.846 119.738,278.952 119.915,278.952 120.206 C 278.952 120.463,279.036 120.674,279.139 120.674 C 279.242 120.674,279.326 120.845,279.326 121.054 C 279.326 121.263,279.453 121.482,279.607 121.541 C 279.761 121.601,279.888 121.766,279.888 121.910 C 279.888 122.053,279.972 122.170,280.075 122.170 C 280.178 122.170,280.262 122.320,280.262 122.503 C 280.262 122.845,280.871 123.480,281.200 123.480 C 281.301 123.480,281.384 123.690,281.384 123.948 C 281.384 124.205,281.469 124.415,281.572 124.415 C 281.674 124.415,281.759 124.542,281.759 124.696 C 281.759 124.850,281.885 124.977,282.039 124.977 C 282.201 124.977,282.320 125.146,282.320 125.375 C 282.320 125.595,282.615 126.052,282.975 126.392 C 283.335 126.732,283.630 127.099,283.630 127.209 C 283.630 127.319,283.720 127.409,283.830 127.409 C 284.115 127.409,284.494 127.825,284.646 128.306 C 284.718 128.533,284.856 128.718,284.952 128.718 C 285.048 128.718,285.126 128.845,285.126 128.999 C 285.126 129.153,285.253 129.280,285.407 129.280 C 285.561 129.280,285.688 129.370,285.688 129.480 C 285.688 129.739,286.164 130.215,286.423 130.215 C 286.533 130.215,286.623 130.305,286.623 130.416 C 286.623 130.675,287.099 131.151,287.358 131.151 C 287.468 131.151,287.558 131.241,287.558 131.351 C 287.558 131.610,288.034 132.086,288.293 132.086 C 288.404 132.086,288.494 132.212,288.494 132.367 C 288.494 132.521,288.620 132.647,288.775 132.647 C 288.929 132.647,289.055 132.726,289.055 132.822 C 289.055 132.918,289.241 133.055,289.467 133.127 C 289.949 133.280,290.365 133.658,290.365 133.944 C 290.365 134.054,290.460 134.144,290.577 134.144 C 290.694 134.144,290.985 134.355,291.223 134.612 C 291.462 134.869,291.766 135.082,291.899 135.085 C 292.234 135.094,292.797 135.543,292.797 135.802 C 292.797 135.919,292.923 136.015,293.078 136.015 C 293.232 136.015,293.358 136.099,293.358 136.202 C 293.358 136.305,293.569 136.389,293.826 136.389 C 294.117 136.389,294.294 136.495,294.294 136.670 C 294.294 136.844,294.470 136.950,294.761 136.950 C 295.019 136.950,295.229 137.046,295.229 137.164 C 295.229 137.478,295.822 137.873,296.305 137.880 C 296.552 137.883,296.726 138.002,296.726 138.167 C 296.726 138.333,296.898 138.447,297.149 138.447 C 297.382 138.447,297.730 138.657,297.924 138.915 C 298.117 139.172,298.427 139.383,298.612 139.383 C 298.797 139.383,299.001 139.467,299.065 139.570 C 299.128 139.673,299.386 139.757,299.637 139.757 C 299.918 139.757,300.094 139.865,300.094 140.037 C 300.094 140.232,300.289 140.318,300.728 140.318 C 301.120 140.318,301.404 140.426,301.471 140.599 C 301.530 140.753,301.750 140.879,301.959 140.879 C 302.168 140.879,302.339 140.964,302.339 141.066 C 302.339 141.169,302.591 141.254,302.900 141.254 C 303.274 141.254,303.461 141.347,303.461 141.534 C 303.461 141.730,303.659 141.815,304.116 141.815 C 304.476 141.815,304.771 141.899,304.771 142.002 C 304.771 142.105,305.108 142.189,305.519 142.189 C 306.060 142.189,306.268 142.267,306.268 142.470 C 306.268 142.672,306.475 142.750,307.016 142.750 C 307.428 142.750,307.764 142.834,307.764 142.937 C 307.764 143.040,308.185 143.124,308.700 143.124 C 309.407 143.124,309.635 143.193,309.635 143.405 C 309.635 143.617,309.864 143.686,310.571 143.686 C 311.085 143.686,311.506 143.763,311.506 143.857 C 311.506 143.951,312.138 144.087,312.909 144.159 C 313.681 144.232,314.312 144.365,314.312 144.456 C 314.312 144.547,315.061 144.621,315.976 144.621 C 317.283 144.621,317.663 144.681,317.748 144.902 C 317.910 145.325,330.495 145.325,330.657 144.902 C 330.743 144.678,331.146 144.621,332.641 144.621 C 333.674 144.621,334.518 144.544,334.518 144.449 C 334.518 144.354,335.065 144.218,335.734 144.147 C 336.403 144.075,336.950 143.942,336.950 143.851 C 336.950 143.760,337.371 143.686,337.886 143.686 C 338.593 143.686,338.821 143.617,338.821 143.405 C 338.821 143.193,339.050 143.124,339.757 143.124 C 340.271 143.124,340.692 143.040,340.692 142.937 C 340.692 142.834,341.029 142.750,341.441 142.750 C 341.981 142.750,342.189 142.672,342.189 142.470 C 342.189 142.267,342.397 142.189,342.937 142.189 C 343.349 142.189,343.686 142.105,343.686 142.002 C 343.686 141.899,343.896 141.815,344.153 141.815 C 344.444 141.815,344.621 141.709,344.621 141.534 C 344.621 141.338,344.819 141.254,345.276 141.254 C 345.636 141.254,345.931 141.169,345.931 141.066 C 345.931 140.964,346.093 140.879,346.292 140.879 C 346.490 140.879,346.779 140.753,346.933 140.599 C 347.087 140.444,347.388 140.318,347.601 140.318 C 347.821 140.318,347.989 140.197,347.989 140.037 C 347.989 139.863,348.165 139.757,348.457 139.757 C 348.714 139.757,348.924 139.673,348.924 139.570 C 348.924 139.467,349.135 139.383,349.392 139.383 C 349.683 139.383,349.860 139.277,349.860 139.102 C 349.860 138.948,349.986 138.821,350.140 138.821 C 350.295 138.821,350.421 138.737,350.421 138.634 C 350.421 138.531,350.631 138.447,350.889 138.447 C 351.180 138.447,351.356 138.341,351.356 138.167 C 351.356 138.007,351.524 137.886,351.744 137.886 C 352.158 137.886,352.666 137.481,352.666 137.151 C 352.666 137.041,352.870 136.950,353.118 136.950 C 353.367 136.950,353.613 136.845,353.665 136.717 C 353.717 136.588,353.766 137.646,353.774 139.069 C 353.789 141.652,353.918 142.189,354.524 142.189 C 354.634 142.189,354.724 142.279,354.724 142.389 C 354.724 142.648,355.200 143.124,355.459 143.124 C 355.569 143.124,355.659 143.251,355.659 143.405 C 355.659 143.651,356.897 143.686,365.675 143.686 C 374.405 143.686,375.704 143.650,375.798 143.405 C 375.857 143.251,376.071 143.124,376.273 143.124 C 376.670 143.124,377.175 142.713,377.175 142.389 C 377.175 142.279,377.301 142.189,377.456 142.189 C 377.630 142.189,377.736 142.012,377.736 141.721 C 377.736 141.464,377.820 141.254,377.923 141.254 C 378.048 141.254,378.110 125.476,378.110 94.294 C 378.110 63.112,378.048 47.334,377.923 47.334 C 377.820 47.334,377.736 47.135,377.736 46.892 C 377.736 46.640,377.536 46.301,377.268 46.100 C 377.011 45.906,376.801 45.642,376.801 45.512 C 376.801 45.382,376.674 45.276,376.520 45.276 C 376.366 45.276,376.239 45.192,376.239 45.089 C 376.239 44.966,372.642 44.904,365.809 44.908 C 355.102 44.914,354.724 44.938,354.724 45.624 C 354.724 45.741,354.598 45.837,354.443 45.837 C 354.269 45.837,354.163 46.014,354.163 46.305 C 354.163 46.562,354.079 46.773,353.976 46.773 C 353.860 46.773,353.789 47.729,353.789 49.266 L 353.789 51.759 353.227 51.677 C 352.919 51.632,352.666 51.514,352.666 51.415 C 352.666 51.104,352.147 50.702,351.744 50.702 C 351.524 50.702,351.356 50.580,351.356 50.421 C 351.356 50.263,351.189 50.140,350.973 50.140 C 350.763 50.140,350.395 49.930,350.157 49.673 C 349.918 49.415,349.543 49.205,349.324 49.205 C 349.093 49.205,348.924 49.086,348.924 48.924 C 348.924 48.750,348.748 48.644,348.457 48.644 C 348.199 48.644,347.989 48.559,347.989 48.457 C 347.989 48.354,347.778 48.269,347.521 48.269 C 347.230 48.269,347.053 48.163,347.053 47.989 C 347.053 47.816,346.878 47.708,346.597 47.708 C 346.345 47.708,346.088 47.624,346.024 47.521 C 345.961 47.418,345.703 47.334,345.452 47.334 C 345.171 47.334,344.995 47.226,344.995 47.053 C 344.995 46.859,344.800 46.773,344.361 46.773 C 343.969 46.773,343.684 46.665,343.618 46.492 C 343.550 46.316,343.264 46.211,342.850 46.211 C 342.486 46.211,342.189 46.127,342.189 46.024 C 342.189 45.921,341.852 45.837,341.441 45.837 C 340.900 45.837,340.692 45.759,340.692 45.557 C 340.692 45.362,340.496 45.276,340.048 45.276 C 339.694 45.276,339.353 45.192,339.289 45.089 C 339.225 44.986,338.757 44.902,338.249 44.902 C 337.552 44.902,337.325 44.833,337.325 44.621 C 337.325 44.403,337.076 44.341,336.213 44.341 C 335.602 44.341,335.050 44.256,334.986 44.153 C 334.922 44.051,334.169 43.966,333.311 43.966 C 332.098 43.966,331.728 43.904,331.644 43.686 C 331.551 43.443,330.573 43.405,324.421 43.405 C 318.221 43.405,317.306 43.441,317.306 43.686 M150.795 45.089 C 150.795 45.192,150.585 45.276,150.327 45.276 C 150.070 45.276,149.860 45.372,149.860 45.488 C 149.860 45.605,149.649 45.896,149.392 46.134 C 149.135 46.373,148.924 46.704,148.924 46.871 C 148.924 47.037,148.798 47.300,148.644 47.454 C 148.396 47.702,148.363 53.158,148.363 94.294 C 148.363 135.430,148.396 140.885,148.644 141.133 C 148.798 141.288,148.924 141.588,148.924 141.801 C 148.924 142.021,149.046 142.189,149.205 142.189 C 149.359 142.189,149.486 142.279,149.486 142.389 C 149.486 142.720,149.993 143.124,150.408 143.124 C 150.627 143.124,150.795 143.246,150.795 143.405 C 150.795 143.651,152.011 143.686,160.617 143.686 C 169.224 143.686,170.440 143.651,170.440 143.405 C 170.440 143.230,170.616 143.124,170.907 143.124 C 171.165 143.124,171.375 143.040,171.375 142.937 C 171.375 142.834,171.501 142.750,171.656 142.750 C 171.810 142.750,171.936 142.624,171.936 142.470 C 171.936 142.315,172.063 142.189,172.217 142.189 C 172.392 142.189,172.498 142.012,172.498 141.721 C 172.498 141.464,172.582 141.254,172.685 141.254 C 172.809 141.254,172.872 125.476,172.872 94.294 C 172.872 63.112,172.809 47.334,172.685 47.334 C 172.582 47.334,172.498 47.142,172.498 46.908 C 172.498 46.490,171.926 45.837,171.560 45.837 C 171.458 45.837,171.375 45.747,171.375 45.637 C 171.375 44.914,171.206 44.902,160.818 44.902 C 154.261 44.902,150.795 44.966,150.795 45.089 M330.844 64.896 C 330.961 64.992,331.520 65.111,332.086 65.161 C 333.287 65.267,334.846 65.607,335.311 65.864 C 335.490 65.962,335.842 66.043,336.095 66.043 C 336.348 66.043,336.602 66.121,336.661 66.216 C 336.720 66.311,337.038 66.448,337.367 66.520 C 337.697 66.593,338.096 66.720,338.254 66.802 C 338.412 66.885,339.088 67.215,339.757 67.535 C 341.114 68.186,341.455 68.380,342.317 68.989 C 342.644 69.221,342.982 69.411,343.067 69.411 C 343.152 69.411,343.431 69.600,343.688 69.832 C 343.944 70.063,344.490 70.503,344.902 70.809 C 346.540 72.027,350.234 76.234,350.234 76.882 C 350.234 76.992,350.312 77.081,350.408 77.081 C 350.504 77.081,350.642 77.271,350.714 77.502 C 350.786 77.734,350.902 77.965,350.971 78.017 C 351.204 78.191,352.666 81.303,352.666 81.625 C 352.666 81.802,352.734 81.946,352.818 81.946 C 352.901 81.946,353.118 82.472,353.299 83.115 C 353.481 83.758,353.719 84.495,353.829 84.752 C 354.106 85.404,354.351 86.505,354.534 87.933 C 354.620 88.601,354.782 89.443,354.894 89.802 C 355.163 90.664,355.154 97.705,354.884 98.690 C 354.770 99.102,354.639 99.902,354.591 100.468 C 354.543 101.034,354.427 101.577,354.333 101.674 C 354.240 101.772,354.162 102.109,354.162 102.423 C 354.161 102.737,354.035 103.235,353.881 103.529 C 353.727 103.824,353.601 104.261,353.601 104.501 C 353.601 104.740,353.517 104.988,353.414 105.051 C 353.312 105.115,353.227 105.297,353.227 105.455 C 353.227 106.185,350.157 112.231,349.489 112.816 C 349.430 112.867,349.095 113.288,348.745 113.751 C 348.099 114.604,345.854 116.900,344.995 117.587 C 343.425 118.841,342.955 119.177,342.770 119.177 C 342.656 119.177,342.563 119.251,342.563 119.342 C 342.563 119.433,342.416 119.558,342.236 119.621 C 342.056 119.683,341.487 119.991,340.973 120.304 C 340.458 120.617,339.911 120.921,339.757 120.980 C 339.030 121.259,338.136 121.644,337.842 121.805 C 337.663 121.903,337.399 121.983,337.255 121.983 C 337.111 121.983,336.752 122.109,336.457 122.263 C 336.163 122.416,335.737 122.543,335.512 122.543 C 335.286 122.544,335.050 122.629,334.986 122.732 C 334.922 122.834,334.575 122.919,334.214 122.919 C 333.853 122.919,333.387 123.010,333.178 123.122 C 331.739 123.892,320.759 123.946,319.534 123.189 C 319.390 123.100,318.893 122.967,318.429 122.895 C 317.172 122.697,315.926 122.359,315.725 122.160 C 315.627 122.063,315.405 121.983,315.232 121.983 C 315.058 121.983,314.675 121.857,314.381 121.704 C 314.086 121.550,313.697 121.424,313.517 121.423 C 313.337 121.422,313.190 121.338,313.190 121.235 C 313.190 121.132,313.091 121.048,312.971 121.048 C 312.577 121.048,310.256 119.831,309.133 119.037 C 308.806 118.805,308.468 118.616,308.383 118.616 C 308.298 118.616,308.001 118.405,307.724 118.148 C 307.446 117.891,307.138 117.680,307.040 117.680 C 306.941 117.680,306.832 117.617,306.798 117.540 C 306.763 117.463,306.340 117.082,305.857 116.694 C 304.766 115.817,303.568 114.611,302.935 113.751 C 302.670 113.391,302.365 113.012,302.256 112.909 C 301.861 112.536,301.029 111.339,301.029 111.144 C 301.029 111.035,300.959 110.945,300.873 110.945 C 300.745 110.945,300.089 109.702,298.382 106.223 C 298.294 106.045,298.220 105.750,298.217 105.568 C 298.213 105.387,298.087 105.075,297.936 104.875 C 297.785 104.676,297.661 104.281,297.661 103.998 C 297.661 103.715,297.577 103.431,297.474 103.368 C 297.371 103.304,297.287 102.999,297.287 102.689 C 297.287 102.380,297.189 101.944,297.070 101.721 C 296.269 100.225,296.260 88.294,297.058 86.869 C 297.184 86.644,297.287 86.165,297.287 85.804 C 297.287 85.444,297.371 85.096,297.474 85.033 C 297.577 84.969,297.661 84.686,297.661 84.403 C 297.661 84.120,297.785 83.725,297.936 83.525 C 298.087 83.325,298.213 83.013,298.217 82.832 C 298.220 82.650,298.303 82.356,298.400 82.177 C 298.498 81.998,298.848 81.263,299.179 80.543 C 299.725 79.353,301.476 76.373,301.762 76.146 C 301.827 76.094,302.171 75.674,302.527 75.210 C 303.344 74.145,305.432 72.064,306.383 71.368 C 306.782 71.075,307.194 70.739,307.297 70.620 C 307.744 70.107,311.416 68.007,312.816 67.464 C 312.970 67.404,313.223 67.283,313.377 67.196 C 314.068 66.804,314.459 66.643,315.018 66.520 C 315.348 66.448,315.666 66.311,315.725 66.216 C 315.783 66.121,316.121 66.043,316.475 66.043 C 316.829 66.043,317.119 65.977,317.119 65.896 C 317.119 65.729,318.691 65.358,320.486 65.102 C 321.155 65.006,322.208 64.848,322.825 64.751 C 324.183 64.536,330.545 64.652,330.844 64.896 M23.267 157.811 C 23.205 157.973,22.925 158.092,22.604 158.092 C 22.050 158.092,20.954 158.952,20.954 159.387 C 20.954 159.498,20.828 159.588,20.674 159.588 C 20.519 159.588,20.393 159.673,20.393 159.775 C 20.393 159.878,20.267 159.963,20.112 159.963 C 19.958 159.963,19.832 160.053,19.832 160.163 C 19.832 160.422,19.356 160.898,19.097 160.898 C 18.986 160.898,18.896 160.988,18.896 161.098 C 18.896 161.358,18.420 161.833,18.161 161.833 C 18.051 161.833,17.961 161.960,17.961 162.114 C 17.961 162.268,17.877 162.395,17.774 162.395 C 17.671 162.395,17.587 162.521,17.587 162.675 C 17.587 162.830,17.497 162.956,17.388 162.956 C 17.129 162.956,14.219 165.866,14.219 166.125 C 14.219 166.234,14.093 166.324,13.938 166.324 C 13.471 166.324,13.624 166.649,14.153 166.782 C 14.425 166.850,99.299 166.940,202.761 166.982 C 380.984 167.054,390.887 167.075,391.112 167.382 C 391.359 167.720,392.516 166.859,392.516 166.338 C 392.516 166.227,392.607 166.137,392.717 166.137 C 393.041 166.137,393.452 165.632,393.452 165.235 C 393.452 165.032,393.578 164.819,393.732 164.759 C 393.956 164.673,394.013 164.270,394.013 162.775 C 394.013 161.231,393.963 160.898,393.732 160.898 C 393.558 160.898,393.452 160.721,393.452 160.430 C 393.452 160.173,393.368 159.963,393.265 159.963 C 393.162 159.963,393.078 159.752,393.078 159.495 C 393.078 159.220,392.970 159.027,392.817 159.027 C 392.674 159.027,392.508 158.901,392.449 158.746 C 392.389 158.592,392.170 158.466,391.961 158.466 C 391.752 158.466,391.581 158.382,391.581 158.279 C 391.581 158.176,391.370 158.092,391.113 158.092 C 390.822 158.092,390.645 157.986,390.645 157.811 C 390.645 157.383,23.431 157.383,23.267 157.811 M9.355 171.282 C 9.355 171.436,9.264 171.562,9.154 171.562 C 8.895 171.562,8.419 172.038,8.419 172.297 C 8.419 172.407,8.329 172.498,8.219 172.498 C 7.862 172.498,7.484 173.020,7.484 173.513 C 7.484 173.816,7.380 173.994,7.203 173.994 C 6.972 173.994,6.922 174.327,6.922 175.865 C 6.922 177.404,6.972 177.736,7.203 177.736 C 7.378 177.736,7.484 177.913,7.484 178.204 C 7.484 178.461,7.568 178.672,7.671 178.672 C 7.774 178.672,7.858 178.798,7.858 178.952 C 7.858 179.107,7.948 179.233,8.057 179.233 C 8.167 179.233,8.535 179.528,8.875 179.888 L 9.492 180.543 194.269 180.543 C 317.329 180.543,379.046 180.480,379.046 180.355 C 379.046 180.253,379.172 180.168,379.326 180.168 C 379.481 180.168,379.607 180.042,379.607 179.888 C 379.607 179.733,379.697 179.607,379.808 179.607 C 380.067 179.607,380.543 179.131,380.543 178.872 C 380.543 178.762,380.633 178.672,380.743 178.672 C 381.002 178.672,381.478 178.196,381.478 177.937 C 381.478 177.826,381.604 177.736,381.759 177.736 C 381.913 177.736,382.039 177.646,382.039 177.536 C 382.039 177.277,382.515 176.801,382.774 176.801 C 382.885 176.801,382.975 176.689,382.975 176.552 C 382.975 176.415,383.185 176.190,383.442 176.052 C 383.700 175.915,383.910 175.690,383.910 175.553 C 383.910 175.416,384.000 175.304,384.111 175.304 C 384.370 175.304,384.846 174.828,384.846 174.569 C 384.846 174.459,384.972 174.369,385.126 174.369 C 385.281 174.369,385.407 174.280,385.407 174.171 C 385.407 174.062,385.835 173.563,386.359 173.061 C 386.965 172.479,387.286 172.025,387.245 171.809 C 387.181 171.480,380.677 171.467,198.547 171.422 C 73.011 171.391,9.916 171.312,9.916 171.188 C 9.916 171.085,9.790 171.001,9.635 171.001 C 9.481 171.001,9.355 171.127,9.355 171.282 " stroke="none" fill="#fbfbfc" fill-rule="evenodd"></path><path id="path2" d="M13.067 167.440 C 13.028 167.558,12.829 167.678,12.625 167.708 C 12.283 167.758,12.224 167.967,12.487 168.195 C 12.546 168.246,12.526 168.170,12.443 168.025 C 12.341 167.850,12.361 167.806,12.502 167.894 C 12.857 168.113,12.323 168.777,11.842 168.715 C 11.615 168.686,11.411 168.746,11.387 168.849 C 11.363 168.952,11.128 169.203,10.864 169.406 C 9.689 170.311,9.598 170.923,10.617 171.068 C 12.510 171.339,88.920 170.909,89.053 170.627 C 89.125 170.472,89.281 170.158,89.400 169.928 C 89.519 169.698,89.616 169.420,89.616 169.311 C 89.616 169.202,89.827 168.917,90.084 168.679 C 91.295 167.556,94.283 167.643,52.245 167.585 C 31.176 167.557,13.758 167.464,13.538 167.380 C 13.280 167.281,13.113 167.302,13.067 167.440 " stroke="none" fill="#179783" fill-rule="evenodd"></path><path id="path3" d="M322.886 64.701 C 322.303 64.772,321.755 64.902,321.670 64.991 C 321.583 65.083,322.087 65.082,322.825 64.990 C 324.492 64.782,327.840 64.780,329.654 64.986 C 330.694 65.104,331.005 65.091,330.856 64.934 C 330.617 64.684,324.510 64.506,322.886 64.701 M318.803 65.400 C 318.442 65.536,317.916 65.652,317.633 65.658 C 317.350 65.664,317.119 65.753,317.119 65.856 C 317.119 65.959,316.876 66.043,316.579 66.043 C 316.282 66.043,315.798 66.169,315.503 66.323 C 315.208 66.476,314.825 66.603,314.651 66.603 C 314.477 66.604,314.282 66.688,314.219 66.791 C 314.155 66.894,313.950 66.978,313.763 66.978 C 313.576 66.978,313.318 67.105,313.190 67.259 C 312.878 67.635,313.006 67.615,314.167 67.110 C 315.834 66.386,318.933 65.538,321.048 65.227 C 321.305 65.189,321.052 65.157,320.486 65.155 C 319.920 65.154,319.163 65.264,318.803 65.400 M331.525 65.227 C 333.638 65.629,334.771 65.895,335.734 66.219 C 337.062 66.664,337.637 66.716,336.882 66.323 C 336.588 66.169,336.186 66.043,335.991 66.043 C 335.796 66.043,335.490 65.962,335.311 65.864 C 334.809 65.586,333.226 65.258,332.086 65.195 C 331.520 65.164,331.268 65.178,331.525 65.227 M339.792 67.807 C 343.634 69.746,346.977 72.533,349.187 75.640 C 349.685 76.339,350.132 76.871,350.182 76.822 C 350.482 76.521,346.528 72.018,344.902 70.809 C 344.490 70.503,343.944 70.063,343.688 69.832 C 343.431 69.600,343.152 69.411,343.067 69.411 C 342.982 69.411,342.644 69.221,342.317 68.989 C 341.455 68.380,341.114 68.186,339.757 67.535 C 339.088 67.215,338.395 66.874,338.216 66.779 C 338.037 66.683,337.785 66.605,337.655 66.606 C 337.525 66.607,338.486 67.148,339.792 67.807 M311.159 68.205 C 309.710 68.980,307.552 70.330,307.297 70.622 C 307.194 70.739,306.782 71.075,306.383 71.368 C 305.432 72.064,303.344 74.145,302.527 75.210 C 302.171 75.674,301.827 76.094,301.762 76.146 C 301.476 76.373,299.725 79.353,299.179 80.543 C 298.848 81.263,298.498 81.998,298.400 82.177 C 298.303 82.356,298.220 82.650,298.217 82.832 C 298.213 83.013,298.087 83.325,297.936 83.525 C 297.785 83.725,297.661 84.120,297.661 84.403 C 297.661 84.686,297.577 84.969,297.474 85.033 C 297.371 85.096,297.294 85.459,297.302 85.839 C 297.310 86.219,297.342 86.445,297.373 86.342 C 297.404 86.239,297.534 85.776,297.662 85.313 C 299.763 77.745,304.241 72.222,311.413 68.353 C 312.236 67.909,312.783 67.551,312.629 67.557 C 312.474 67.564,311.813 67.855,311.159 68.205 M350.721 77.970 C 351.009 78.459,351.402 79.183,351.594 79.578 C 351.786 79.974,351.982 80.260,352.029 80.213 C 352.117 80.125,351.176 78.182,350.965 78.017 C 350.899 77.965,350.786 77.734,350.714 77.502 C 350.642 77.271,350.496 77.081,350.391 77.081 C 350.285 77.081,350.434 77.481,350.721 77.970 M352.105 80.579 C 352.105 80.690,352.231 81.022,352.384 81.316 C 352.608 81.745,352.663 81.777,352.659 81.478 C 352.656 81.272,352.531 80.940,352.379 80.741 C 352.228 80.541,352.105 80.468,352.105 80.579 M352.838 82.367 C 352.928 82.598,353.108 83.146,353.238 83.584 C 353.368 84.022,353.514 84.341,353.561 84.294 C 353.690 84.164,352.992 81.946,352.822 81.946 C 352.741 81.946,352.748 82.135,352.838 82.367 M353.696 84.939 C 353.763 85.196,353.895 85.744,353.990 86.155 C 354.085 86.567,354.243 87.198,354.343 87.558 L 354.523 88.213 354.452 87.465 C 354.348 86.376,354.075 85.264,353.809 84.841 C 353.593 84.499,353.585 84.506,353.696 84.939 M296.997 86.942 C 296.247 88.632,296.315 100.476,297.083 101.695 C 297.281 102.008,297.295 101.968,297.191 101.403 C 296.373 96.992,296.349 91.276,297.133 87.689 C 297.335 86.762,297.260 86.350,296.997 86.942 M354.681 89.710 C 354.861 90.941,354.857 97.284,354.676 98.597 C 354.557 99.461,354.572 99.566,354.769 99.252 C 355.149 98.647,355.200 90.708,354.830 89.616 L 354.545 88.775 354.681 89.710 M354.375 100.655 C 354.359 100.809,354.292 101.146,354.228 101.403 C 354.138 101.764,354.164 101.823,354.339 101.660 C 354.464 101.544,354.530 101.207,354.486 100.911 C 354.442 100.616,354.392 100.500,354.375 100.655 M354.004 102.398 C 353.988 102.687,353.885 103.095,353.773 103.302 C 353.662 103.510,353.618 103.727,353.675 103.784 C 353.852 103.961,354.185 102.854,354.106 102.350 C 354.033 101.882,354.031 101.883,354.004 102.398 M297.302 102.655 C 297.294 102.983,297.371 103.304,297.474 103.368 C 297.577 103.431,297.661 103.715,297.661 103.998 C 297.661 104.281,297.785 104.676,297.936 104.875 C 298.242 105.280,298.326 104.959,298.049 104.441 C 297.954 104.262,297.751 103.653,297.597 103.087 C 297.363 102.226,297.315 102.156,297.302 102.655 M353.263 104.884 C 352.839 106.143,352.454 107.067,351.797 108.399 C 351.447 109.109,351.199 109.727,351.245 109.773 C 351.291 109.819,351.620 109.239,351.976 108.483 C 352.991 106.328,353.227 105.763,353.227 105.482 C 353.227 105.338,353.319 105.128,353.432 105.015 C 353.545 104.903,353.608 104.663,353.572 104.483 C 353.531 104.274,353.419 104.420,353.263 104.884 M298.227 105.568 C 298.225 105.750,298.294 106.045,298.382 106.223 C 300.089 109.702,300.745 110.945,300.873 110.945 C 300.959 110.945,301.029 111.035,301.029 111.144 C 301.029 111.339,301.861 112.536,302.256 112.909 C 302.365 113.012,302.670 113.391,302.935 113.751 C 303.568 114.611,304.766 115.817,305.857 116.694 C 306.340 117.082,306.763 117.463,306.798 117.540 C 306.832 117.617,306.941 117.680,307.040 117.680 C 307.138 117.680,307.446 117.891,307.724 118.148 C 308.001 118.405,308.298 118.616,308.383 118.616 C 308.468 118.616,308.806 118.805,309.133 119.037 C 310.256 119.831,312.577 121.048,312.971 121.048 C 313.091 121.048,313.190 121.132,313.190 121.235 C 313.190 121.338,313.337 121.422,313.517 121.423 C 313.697 121.424,314.086 121.550,314.381 121.704 C 314.675 121.857,315.054 121.982,315.223 121.979 C 315.391 121.977,314.646 121.599,313.567 121.138 C 306.370 118.064,301.916 113.552,298.521 105.893 C 298.362 105.533,298.229 105.387,298.227 105.568 M350.406 110.990 C 350.057 111.531,349.737 112.058,349.695 112.161 C 349.498 112.641,347.689 114.736,346.322 116.066 C 345.490 116.876,344.808 117.578,344.808 117.625 C 344.808 118.001,347.559 115.288,348.737 113.751 C 349.092 113.288,349.430 112.867,349.489 112.816 C 349.730 112.604,351.191 110.156,351.119 110.084 C 351.076 110.041,350.755 110.448,350.406 110.990 M344.347 117.857 C 344.278 117.968,343.756 118.357,343.185 118.722 C 342.615 119.087,342.211 119.444,342.288 119.515 C 342.364 119.586,342.465 119.539,342.511 119.411 C 342.557 119.282,342.680 119.177,342.786 119.177 C 342.891 119.177,343.326 118.908,343.752 118.579 C 344.179 118.251,344.563 117.956,344.606 117.925 C 344.648 117.893,344.636 117.819,344.578 117.761 C 344.519 117.703,344.415 117.746,344.347 117.857 M341.160 119.954 C 340.851 120.161,340.146 120.537,339.593 120.790 C 339.040 121.044,338.632 121.295,338.686 121.349 C 338.741 121.403,338.961 121.358,339.177 121.248 C 339.393 121.138,339.744 120.959,339.958 120.850 C 341.353 120.141,341.829 119.866,341.920 119.719 C 342.087 119.449,341.765 119.549,341.160 119.954 M337.418 121.709 C 337.107 121.852,336.993 121.970,337.163 121.975 C 337.331 121.979,337.710 121.857,338.005 121.704 C 338.673 121.355,338.182 121.360,337.418 121.709 M315.725 122.160 C 315.909 122.342,317.171 122.700,318.148 122.846 C 318.523 122.902,318.429 122.834,317.867 122.642 C 315.765 121.924,315.407 121.844,315.725 122.160 M336.342 122.093 C 336.281 122.154,335.909 122.285,335.515 122.386 C 335.121 122.486,334.546 122.639,334.238 122.724 L 333.676 122.880 334.273 122.899 C 334.602 122.910,334.916 122.845,334.971 122.756 C 335.026 122.667,335.405 122.540,335.813 122.475 C 336.221 122.410,336.607 122.272,336.670 122.170 C 336.793 121.971,336.526 121.909,336.342 122.093 M319.455 123.128 C 320.200 123.594,328.111 124.071,329.430 123.729 C 329.813 123.630,328.791 123.573,326.615 123.571 C 323.600 123.569,321.488 123.400,319.645 123.014 C 319.142 122.908,319.122 122.920,319.455 123.128 M332.588 123.040 C 332.521 123.107,331.939 123.228,331.294 123.310 L 330.122 123.457 331.446 123.402 C 332.686 123.351,334.111 122.939,333.099 122.924 C 332.885 122.921,332.655 122.973,332.588 123.040 M13.956 166.958 C 14.062 167.235,29.387 167.259,202.415 167.259 C 352.839 167.259,390.805 167.306,390.993 167.493 C 391.182 167.680,391.204 167.662,391.104 167.399 C 391.036 167.219,390.925 167.070,390.859 167.069 C 390.793 167.067,306.083 167.029,202.615 166.985 C 99.147 166.942,14.344 166.850,14.166 166.781 C 13.919 166.686,13.869 166.729,13.956 166.958 M196.960 171.328 C 211.391 171.355,235.007 171.355,249.439 171.328 C 263.870 171.302,252.063 171.280,223.199 171.280 C 194.336 171.280,182.528 171.302,196.960 171.328 M277.877 171.326 C 278.365 171.364,279.165 171.364,279.654 171.326 C 280.143 171.287,279.743 171.255,278.765 171.255 C 277.788 171.255,277.388 171.287,277.877 171.326 " stroke="none" fill="#cde4ed" fill-rule="evenodd"></path><path id="path4" d="M322.825 64.994 C 321.492 65.178,321.869 65.202,326.286 65.205 C 330.922 65.209,331.135 65.195,329.560 64.988 C 327.494 64.715,324.815 64.718,322.825 64.994 M319.364 65.513 C 319.004 65.613,318.204 65.824,317.587 65.983 C 310.401 67.834,303.936 72.575,300.541 78.485 C 299.773 79.822,299.342 80.695,299.414 80.768 C 299.461 80.814,299.723 80.403,299.998 79.855 C 302.625 74.615,307.748 70.030,313.845 67.463 C 314.256 67.289,314.739 67.067,314.918 66.969 C 315.097 66.872,315.449 66.791,315.702 66.791 C 315.955 66.791,316.210 66.712,316.270 66.615 C 316.330 66.518,316.757 66.382,317.219 66.313 C 317.681 66.244,318.105 66.112,318.161 66.021 C 318.217 65.930,318.532 65.855,318.860 65.853 C 319.189 65.852,319.836 65.731,320.299 65.585 C 321.317 65.264,320.495 65.201,319.364 65.513 M332.086 65.585 C 332.549 65.731,333.156 65.852,333.434 65.853 C 333.712 65.855,334.133 65.929,334.369 66.019 C 334.605 66.108,335.304 66.329,335.921 66.508 C 337.814 67.059,340.794 68.439,342.349 69.486 C 342.899 69.856,343.382 70.159,343.422 70.159 C 344.107 70.159,350.047 76.692,350.047 77.446 C 350.047 77.554,350.110 77.643,350.187 77.644 C 350.264 77.645,350.418 77.834,350.530 78.065 C 350.641 78.296,351.010 79.032,351.349 79.701 C 352.319 81.611,353.157 83.722,353.355 84.752 C 353.404 85.009,353.495 85.346,353.556 85.500 C 354.872 88.818,354.889 100.218,353.582 102.757 C 353.490 102.936,353.412 103.230,353.408 103.412 C 353.401 103.793,352.780 105.655,352.600 105.835 C 352.533 105.901,352.479 106.068,352.479 106.206 C 352.479 106.604,350.886 109.836,350.154 110.925 C 349.786 111.471,349.486 111.994,349.486 112.086 C 349.486 112.179,349.407 112.254,349.311 112.254 C 349.215 112.254,349.078 112.440,349.006 112.666 C 348.871 113.092,344.285 117.867,344.011 117.867 C 343.926 117.867,343.416 118.183,342.877 118.569 C 342.338 118.955,341.695 119.386,341.448 119.527 C 340.123 120.284,338.232 121.182,337.325 121.485 C 336.759 121.673,336.127 121.894,335.921 121.974 C 335.215 122.250,333.676 122.607,332.834 122.689 C 332.371 122.735,331.896 122.850,331.778 122.945 C 330.559 123.933,319.458 123.076,315.809 121.712 C 315.346 121.539,314.799 121.354,314.593 121.301 C 313.563 121.035,309.421 118.915,309.292 118.588 C 309.258 118.500,309.148 118.428,309.048 118.428 C 307.777 118.428,302.236 112.652,300.523 109.542 C 299.455 107.603,298.410 105.245,298.410 104.776 C 298.410 104.579,298.326 104.367,298.223 104.303 C 298.120 104.239,298.036 104.034,298.036 103.846 C 298.036 103.658,297.915 103.095,297.768 102.594 C 296.861 99.506,296.498 92.397,297.086 89.242 C 297.456 87.259,297.544 86.049,297.223 87.371 C 296.544 90.163,296.317 95.389,296.739 98.503 C 296.993 100.373,297.850 104.243,298.063 104.481 C 298.151 104.579,298.223 104.776,298.223 104.920 C 298.223 105.491,300.070 109.339,301.115 110.945 C 304.342 115.904,309.678 119.947,315.543 121.877 C 318.073 122.709,318.207 122.748,319.219 122.940 C 329.759 124.942,339.587 122.517,346.047 116.320 C 347.610 114.821,349.673 112.476,349.673 112.200 C 349.673 112.148,349.950 111.693,350.288 111.190 C 350.843 110.366,352.047 108.008,352.659 106.548 C 355.323 100.190,355.666 91.007,353.486 84.440 C 353.241 83.702,353.040 83.010,353.040 82.902 C 353.040 82.724,352.636 81.779,351.750 79.888 C 350.070 76.298,346.935 72.512,343.627 70.080 C 342.199 69.029,337.694 66.615,337.138 66.602 C 336.983 66.598,336.352 66.426,335.734 66.219 C 334.468 65.795,332.183 65.289,331.618 65.307 C 331.413 65.314,331.623 65.439,332.086 65.585 M299.026 81.432 C 298.593 82.365,298.401 82.934,298.489 83.023 C 298.541 83.075,298.681 82.874,298.800 82.578 C 298.920 82.282,299.105 81.850,299.213 81.619 C 299.320 81.387,299.366 81.156,299.315 81.104 C 299.263 81.053,299.133 81.200,299.026 81.432 M298.046 84.050 C 297.916 84.487,297.734 85.039,297.642 85.275 C 297.414 85.860,297.431 86.501,297.661 85.968 C 297.969 85.254,298.463 83.434,298.373 83.344 C 298.324 83.294,298.177 83.612,298.046 84.050 M13.664 166.928 C 13.660 167.112,13.839 167.296,14.079 167.353 C 14.736 167.511,390.995 167.557,390.897 167.399 C 390.849 167.322,306.066 167.259,202.489 167.259 C 23.354 167.259,14.154 167.243,13.918 166.932 C 13.684 166.623,13.669 166.623,13.664 166.928 M389.149 169.264 C 389.149 169.396,389.266 169.504,389.409 169.504 C 389.553 169.504,389.712 169.396,389.762 169.264 C 389.817 169.120,389.712 169.023,389.502 169.023 C 389.308 169.023,389.149 169.131,389.149 169.264 M50.296 171.328 C 72.454 171.355,108.656 171.355,130.745 171.328 C 152.834 171.302,134.705 171.281,90.458 171.281 C 46.211 171.281,28.138 171.302,50.296 171.328 M275.912 171.320 C 276.144 171.365,276.522 171.365,276.754 171.320 C 276.986 171.275,276.796 171.239,276.333 171.239 C 275.870 171.239,275.681 171.275,275.912 171.320 M307.171 171.328 C 321.920 171.355,345.999 171.355,360.679 171.328 C 375.360 171.302,363.293 171.280,333.863 171.280 C 304.434 171.280,292.423 171.302,307.171 171.328 " stroke="none" fill="#8cdcd4" fill-rule="evenodd"></path></g></svg>